<?xml version="1.0" standalone="no"?>
<!DOCTYPE svg PUBLIC "-//W3C//DTD SVG 20010904//EN"
 "http://www.w3.org/TR/2001/REC-SVG-20010904/DTD/svg10.dtd">
<svg version="1.0" xmlns="http://www.w3.org/2000/svg"
 width="512.000000pt" height="512.000000pt" viewBox="0 0 512.000000 512.000000"
 preserveAspectRatio="xMidYMid meet">
<metadata>
Created by potrace 1.14, written by Peter Selinger 2001-2017
</metadata>
<g transform="translate(0.000000,512.000000) scale(0.100000,-0.100000)"
fill="#000000" stroke="none">
<path d="M1490 4409 l-1055 -609 -5 -1768 -5 -1767 -212 -3 -213 -2 0 -85 0
-85 2560 0 2560 0 0 85 0 85 -212 2 -213 3 -3 1767 -2 1766 -348 200 c-362
209 -567 326 -1321 761 -249 143 -458 261 -465 260 -6 -1 -486 -275 -1066
-610z m1330 153 l245 -148 3 -367 2 -367 -510 0 -510 0 2 367 3 367 245 148
c135 81 252 147 260 147 8 0 125 -66 260 -147z m340 -1567 l0 -255 -431 0
-430 0 3 231 3 231 28 24 28 24 400 0 399 0 0 -255z m994 229 l26 -27 0 -228
0 -229 -425 0 -425 0 0 255 0 255 399 0 398 0 27 -26z m-2194 -1214 l0 -640
-606 0 c-497 0 -605 2 -602 13 9 37 554 1055 575 1075 23 21 30 22 244 22
l219 0 0 85 0 85 85 0 85 0 0 -640z m1195 300 l0 -255 -425 0 -425 0 -3 245
c-1 134 0 250 3 257 3 11 91 13 427 11 l423 -3 0 -255z m1025 0 l0 -260 -425
0 -425 0 0 260 0 260 425 0 425 0 0 -260z m-1020 -685 l0 -255 -427 2 -428 3
-3 253 -2 252 430 0 430 0 0 -255z m1020 0 l0 -255 -425 0 -425 0 0 255 0 255
425 0 425 0 0 -255z m228 -445 c12 -11 24 -31 27 -43 4 -13 5 -127 3 -255 -4
-302 18 -276 -242 -280 l-193 -3 -13 46 c-17 62 -77 152 -131 198 -226 194
-582 96 -679 -187 l-17 -51 -687 -3 -686 -2 -12 27 c-35 86 -64 137 -102 180
-165 182 -451 184 -621 2 -39 -42 -86 -124 -109 -192 -5 -17 -16 -18 -111 -15
-159 5 -149 -15 -153 323 l-3 275 1854 0 c1848 0 1853 0 1875 -20z m-2944
-424 c88 -37 156 -138 156 -232 0 -102 -46 -182 -132 -230 -44 -24 -65 -28
-123 -28 -105 0 -186 50 -231 141 -28 55 -26 174 3 229 25 46 81 100 127 120
41 17 158 18 200 0z m2207 2 c51 -15 114 -69 142 -122 30 -57 31 -174 0 -231
-49 -93 -124 -139 -228 -139 -59 0 -79 4 -124 29 -86 47 -130 121 -131 219 0
27 5 66 12 88 15 51 82 126 133 149 46 21 138 25 196 7z"/>
<path d="M2650 4155 l0 -305 125 0 125 0 0 229 0 230 -125 75 -125 75 0 -304z"/>
<path d="M2338 4379 l-118 -70 0 -229 0 -230 125 0 125 0 0 300 c0 165 -3 300
-7 300 -5 0 -61 -32 -125 -71z"/>
<path d="M2560 2995 l0 -85 170 0 170 0 0 85 0 85 -170 0 -170 0 0 -85z"/>
<path d="M3580 2995 l0 -85 175 0 176 0 -3 83 -3 82 -172 3 -173 2 0 -85z"/>
<path d="M2560 2315 l0 -85 170 0 170 0 0 85 0 85 -170 0 -170 0 0 -85z"/>
<path d="M3587 2394 c-4 -4 -7 -43 -7 -86 l0 -78 175 0 176 0 -3 83 -3 82
-166 3 c-91 1 -168 -1 -172 -4z"/>
<path d="M2560 1625 l0 -85 170 0 170 0 0 85 0 85 -170 0 -170 0 0 -85z"/>
<path d="M3582 1628 l3 -83 170 0 170 0 3 83 3 82 -176 0 -176 0 3 -82z"/>
<path d="M1280 515 l0 -85 85 0 85 0 0 85 0 85 -85 0 -85 0 0 -85z"/>
<path d="M3500 515 l0 -85 85 0 85 0 0 85 0 85 -85 0 -85 0 0 -85z"/>
</g>
</svg>
